<?xml version="1.0" encoding="UTF-8"?>
<svg id="Layer_2" data-name="Layer 2" xmlns="http://www.w3.org/2000/svg" viewBox="0 0 122 117">
  <defs>
    <style>
      .cls-1 {
        fill: #fff;
        stroke-width: 0px;
      }
    </style>
  </defs>
  <g id="Layer_6" data-name="Layer 6">
    <path class="cls-1" d="m75,0h36.99c5.52,0,10,4.48,10,10v97c0,5.52-4.48,10-10,10H32c-5.52,0-10-4.47-10-10h0c0-5.53,4.48-10,10-10h52c3.31,0,6-2.69,6-6h0c0-3.31-2.69-6-6-6h-27c-5.52,0-10-4.47-10-10h0c0-5.53,4.48-10,10-10h12.49c3.59,0,6.5-2.91,6.5-6.5h0c0-3.59-2.91-6.5-6.5-6.5H10.01C4.48,52,0,47.52,0,41.99h0c0-5.52,4.47-9.99,9.99-9.99h80.01c3.31,0,6-2.69,6-6h0c0-3.31-2.69-6-6-6h-15.01c-5.52,0-10-4.47-10-10h0C65,4.48,69.48,0,75,0Z"/>
    <rect class="cls-1" x="10" y="0" width="44" height="20" rx="10" ry="10"/>
    <rect class="cls-1" x="4" y="65" width="32" height="20" rx="10" ry="10"/>
  </g>
</svg>